<svg width="125" height="125" viewBox="0 0 125 125" fill="none" xmlns="http://www.w3.org/2000/svg">
<path d="M62.5 40.625L34.375 68.75L43.2812 77.5L62.5 58.2812L81.7188 77.5L90.625 68.75L62.5 40.625ZM62.5 0C71.1458 0 79.2708 1.64062 86.875 4.92188C94.4792 8.20312 101.094 12.6562 106.719 18.2812C112.344 23.9062 116.797 30.5208 120.078 38.125C123.359 45.7292 125 53.8542 125 62.5C125 71.1458 123.359 79.2708 120.078 86.875C116.797 94.4792 112.344 101.094 106.719 106.719C101.094 112.344 94.4792 116.797 86.875 120.078C79.2708 123.359 71.1458 125 62.5 125C53.8542 125 45.7292 123.359 38.125 120.078C30.5208 116.797 23.9062 112.344 18.2812 106.719C12.6562 101.094 8.20312 94.4792 4.92188 86.875C1.64062 79.2708 0 71.1458 0 62.5C0 53.8542 1.64063 45.7292 4.92188 38.125C8.20313 30.5208 12.6563 23.9062 18.2813 18.2812C23.9063 12.6562 30.5208 8.20312 38.125 4.92187C45.7292 1.64062 53.8542 0 62.5 0Z" fill="#71926B"/>
</svg>
