<svg width="126" height="126" viewBox="0 0 126 126" fill="none" xmlns="http://www.w3.org/2000/svg">
<path d="M63 84.875L91.125 56.75L82.2188 48L63 67.2188L43.7812 48L34.875 56.75L63 84.875ZM63 125.5C54.3542 125.5 46.2292 123.859 38.625 120.578C31.0208 117.297 24.4062 112.844 18.7812 107.219C13.1562 101.594 8.70312 94.9792 5.42188 87.375C2.14062 79.7708 0.5 71.6458 0.5 63C0.5 54.3542 2.14062 46.2292 5.42188 38.625C8.70312 31.0208 13.1562 24.4062 18.7812 18.7812C24.4062 13.1562 31.0208 8.70312 38.625 5.42188C46.2292 2.14062 54.3542 0.5 63 0.5C71.6458 0.5 79.7708 2.14062 87.375 5.42188C94.9792 8.70312 101.594 13.1562 107.219 18.7812C112.844 24.4062 117.297 31.0208 120.578 38.625C123.859 46.2292 125.5 54.3542 125.5 63C125.5 71.6458 123.859 79.7708 120.578 87.375C117.297 94.9792 112.844 101.594 107.219 107.219C101.594 112.844 94.9792 117.297 87.375 120.578C79.7708 123.859 71.6458 125.5 63 125.5Z" fill="#71926B"/>
</svg>
