<svg width="68" height="68" viewBox="0 0 68 68" fill="none" xmlns="http://www.w3.org/2000/svg">
<path d="M33.6151 1.71216C51.2346 1.71216 65.5181 15.9956 65.5181 33.6151C65.5181 51.2346 51.2346 65.5181 33.6151 65.5181C15.9956 65.5181 1.71216 51.2346 1.71216 33.6151C1.71217 15.9956 15.9956 1.71217 33.6151 1.71216Z" fill="black" stroke="black" stroke-width="0.194075"/>
<path d="M33.666 24.2854C38.8317 24.2854 43.0466 28.5003 43.0466 33.666C43.0466 38.8317 38.8317 43.0466 33.666 43.0466C28.5003 43.0466 24.2854 38.8317 24.2854 33.666C24.2854 28.5003 28.5003 24.2854 33.666 24.2854ZM33.666 25.6886C29.2729 25.6886 25.6886 29.2729 25.6886 33.666C25.6886 38.0589 29.2729 41.6433 33.666 41.6433C38.0589 41.6433 41.6433 38.0589 41.6433 33.666C41.6433 29.2729 38.0589 25.6886 33.666 25.6886Z" fill="#689367" stroke="#689367" stroke-width="0.388149"/>
<path d="M35.8323 13.5093H31.2288L33.5305 9.14111L35.8323 13.5093ZM33.1047 10.02L31.6663 12.7612L32.093 12.9849V13.4937H35.8127L35.428 12.7612L33.9905 10.02L33.5471 9.17529L33.1047 10.02Z" fill="#689367" stroke="#689367"/>
<path d="M35.8313 53.74L33.5305 58.1072L31.2297 53.74H35.8313ZM32.0754 53.7556V54.2644L31.6497 54.488L33.0881 57.2292L33.5305 58.074L33.9729 57.2292L35.4114 54.488L35.7952 53.7556H32.0754Z" fill="#689367" stroke="#689367"/>
<path d="M13.3381 35.8333L8.97192 33.5315L13.3381 31.2288V35.8333ZM12.5901 31.6331L9.84985 33.0715L9.58228 33.2122V33.8333L9.84985 33.9739L12.5901 35.4124L13.3225 35.7971V31.2493L12.5901 31.6331Z" fill="#689367" stroke="#689367"/>
<path d="M58.1052 33.5315L53.74 35.8333V31.2288L58.1052 33.5315ZM57.4958 33.2288L57.2283 33.0891L54.488 31.6506L53.7556 31.2659V35.8137L54.4871 35.4299L57.2283 33.9915L57.4958 33.8508V33.2288Z" fill="#689367" stroke="#689367"/>
<path d="M6.0459 38.8965L6.45605 38.9727L12.8525 40.1514L12.8535 40.1533C13.233 41.3612 13.7168 42.5568 14.3242 43.6865L10.6348 49.0449L10.3984 49.3877L10.6924 49.6816L17.5615 56.5527L17.8564 56.8467L18.1992 56.6104L23.5547 52.9189C24.6789 53.5072 25.8732 54.0101 27.0869 54.3916H27.0889L28.2676 60.791L28.3438 61.2012H38.9043L38.9795 60.791L40.1572 54.3916H40.1602C40.5642 54.2646 40.966 54.1238 41.3652 53.9727C41.0593 54.0905 40.7529 54.2021 40.4463 54.3027L40.1641 54.3955L40.1104 54.6875L38.9111 61.2334H28.3301L27.1367 54.7217L27.083 54.4277L26.7988 54.3359L26.417 54.208C25.5294 53.9012 24.6673 53.531 23.8301 53.0977L23.5635 52.96L23.3164 53.1299L17.8555 56.8877L10.374 49.4043L14.1318 43.9424L14.2988 43.6992L14.167 43.4355C13.6852 42.4717 13.2552 41.4622 12.9258 40.457L12.833 40.1748L12.541 40.1211L6.03125 38.9268V28.3369L6.0459 28.334V38.8965ZM56.791 49.7373L49.3975 56.8574L43.9307 53.0967L43.6875 52.9287L43.4238 53.0615C43.407 53.0699 43.3899 53.0776 43.373 53.0859C43.4776 53.0324 43.582 52.9785 43.6855 52.9229L43.6914 52.9189L49.0488 56.6104L49.3916 56.8467L49.6855 56.5527L56.5986 49.6367L56.791 49.7373ZM23.3164 14.1338L23.5596 14.3018L23.8232 14.1689C23.8417 14.1597 23.8604 14.1508 23.8789 14.1416C23.7708 14.1969 23.6626 14.252 23.5557 14.3096L18.1992 10.6191L17.8564 10.3828L17.5615 10.6777L10.6924 17.5488L10.3984 17.8428L10.6348 18.1855L14.3242 23.543C13.7362 24.6676 13.235 25.8631 12.8535 27.0771L12.8525 27.0781L12.8369 27.0811L12.9268 26.8047C13.2566 25.7818 13.6692 24.7919 14.1641 23.835L14.3018 23.5684L14.1318 23.3223L10.374 17.8594L17.8564 10.375L23.3164 14.1338ZM38.917 6.03125L40.1104 12.543L40.1641 12.8369L40.4492 12.9287C41.4717 13.2587 42.4613 13.671 43.418 14.166L43.6836 14.3037L43.9307 14.1338L49.3906 10.376L56.5088 17.4951L56.5049 17.499L49.6855 10.6777L49.3916 10.3828L49.0488 10.6191L43.6904 14.3096L43.6855 14.3076C42.5632 13.721 41.3714 13.2197 40.1602 12.8389L40.1572 12.8379L38.9795 6.43945L38.9043 6.03125H38.917ZM28.3438 6.03125L28.2676 6.43945L27.0889 12.8379L27.0869 12.8389C26.6827 12.9659 26.2802 13.1056 25.8809 13.2568C26.187 13.1389 26.494 13.0283 26.8008 12.9277L27.083 12.835L27.1367 12.543L28.3301 6.03125H28.3438Z" fill="#689367" stroke="#689367"/>
<path d="M39.5761 5.24007L39.62 5.47868L40.8576 12.23C41.8078 12.5456 42.7306 12.9302 43.6255 13.3836L49.2855 9.48831L49.4852 9.3509L49.6565 9.52241L57.4219 17.2902L57.6276 17.496L57.4219 17.7018L56.5054 18.6183L56.2995 18.4125L49.2977 11.4084L43.8976 15.1294L43.7559 15.227L43.3314 15.0147L43.3289 15.0136L43.3266 15.0123C42.2431 14.4453 41.0934 13.9618 39.9284 13.5952L39.6406 13.5104L39.4688 13.46L39.4364 13.284L38.2456 6.82072H29.0022L27.8111 13.284L27.7787 13.46L27.607 13.5104L27.3194 13.5951C26.1518 13.9625 25.0037 14.4292 23.924 15.0107L23.9201 15.0128L23.9162 15.0147L23.6453 15.15L23.4916 15.227L23.3501 15.1294L17.9497 11.4084L11.4235 17.9363L15.1437 23.3385L15.2413 23.4802L15.1644 23.6339L15.0289 23.9046L15.0278 23.9069L15.0265 23.9092C14.4588 24.9947 13.975 26.1465 13.6083 27.3137L13.5253 27.5964L13.4748 27.768L13.2988 27.8004L6.83764 28.992V38.2381L13.2988 39.4296L13.4748 39.462L13.5253 39.6337L13.6083 39.9165L13.6784 40.1354C14.0109 41.1566 14.4203 42.1606 14.9171 43.1145L15.025 43.3179L15.0271 43.3218L15.029 43.3257L15.1645 43.5964L15.2414 43.7503L15.1438 43.8918L11.4236 49.2937L17.9498 55.8217L23.3502 52.1009L23.4917 52.0035L23.6454 52.0804L23.9161 52.2154L23.9184 52.2166L23.9209 52.218C25.006 52.7857 26.1572 53.2699 27.3238 53.6365L27.607 53.7198L27.7787 53.7703L27.8111 53.9463L29.0022 60.4098H38.2456L39.4364 53.9463L39.4688 53.7703L39.6406 53.7198L39.923 53.6367L40.1421 53.5667C41.2359 53.2103 42.3101 52.7657 43.3237 52.2198L43.3274 52.2175L43.3317 52.2156L43.6023 52.0805L43.756 52.0037L43.8977 52.1011L49.2978 55.8219L56.2996 48.8179L56.4508 48.6667L56.6404 48.7657L57.7738 49.3578L58.1321 49.5451L57.8408 49.8258L49.6526 57.7118L49.4814 57.8768L49.2856 57.7421L43.6236 53.845C42.7303 54.2846 41.7962 54.6819 40.8579 54.9994L39.6247 61.7258V62.0241H27.6712L27.6277 61.7856L26.3899 55.0341C25.4397 54.7184 24.5169 54.3339 23.6218 53.8804L17.962 57.7756L17.7624 57.913L17.5911 57.7418L9.52107 49.6693L9.34994 49.4981L9.48715 49.2986L13.3829 43.6347C12.9434 42.7412 12.5463 41.8068 12.229 40.8678L5.47885 39.6298L5.24023 39.5861V27.6777L5.47885 27.634L12.2281 26.396C12.5437 25.4455 12.9282 24.5223 13.3815 23.6268L9.48713 17.9653L9.34992 17.7658L9.52106 17.5944L17.5911 9.52233L17.7624 9.35082L17.962 9.48823L23.6239 13.3851C24.5171 12.9455 25.4511 12.5482 26.3897 12.2309L27.6277 5.47861L27.6712 5.23999L39.5761 5.24007Z" fill="#689367" stroke="#689367" stroke-width="0.582224"/>
<path d="M62.024 39.6201L61.7855 39.6638L55.036 40.9018C54.7204 41.8522 54.3361 42.775 53.883 43.6703L57.6056 48.5132L57.9963 49.0776L57.3188 48.9662L56.1703 49.6833L56.0481 49.6633L55.9778 49.561L52.1206 43.9596L52.0232 43.8182L52.1 43.6645L52.2353 43.3935L52.2367 43.391L52.2379 43.3889C52.8054 42.3033 53.2892 41.1516 53.656 39.9845L53.7391 39.7017L53.7897 39.5299L53.9657 39.4975L60.4269 38.3059V29.06L53.9657 27.8686L53.7897 27.8361L53.7391 27.6644L53.656 27.3816C53.2885 26.2119 52.8216 25.0616 52.2394 23.98L52.2375 23.9761L52.2356 23.9722L52.1001 23.7017L52.0232 23.548L52.1207 23.4065L55.8405 18.004L49.1432 11.3048L49.0471 11.2087L49.0592 11.0732L49.7234 10.2627L49.7783 9.6416L50.2193 10.0826L53.7084 13.5924L57.7432 17.6285L57.9146 17.7997L57.7774 17.9993L53.8813 23.6629C54.3209 24.5564 54.7178 25.4911 55.0351 26.4298L61.7856 27.6682L62.0241 27.7119L62.024 39.6201Z" fill="#689367" stroke="#689367" stroke-width="0.582224"/>
<path d="M62.024 39.6201L61.7855 39.6638L55.036 40.9018C54.7204 41.8522 54.3361 42.775 53.883 43.6703L57.5849 48.523L57.9756 49.0874L57.2981 48.976L56.1703 49.6833L56.0481 49.6633L55.9778 49.5611L52.1206 43.9597L52.0232 43.8182L52.1 43.6645L52.2353 43.3936L52.2367 43.3911L52.2379 43.389C52.8054 42.3033 53.2892 41.1517 53.656 39.9845L53.7391 39.7017L53.7897 39.53L53.9657 39.4976L60.4269 38.3059V29.06L53.9657 27.8686L53.7897 27.8362L53.7391 27.6644L53.656 27.3817C53.2885 26.2119 52.8216 25.0616 52.2394 23.9801L52.2375 23.9762L52.2356 23.9722L52.1001 23.7017L52.0232 23.548L52.1207 23.4065L55.8405 18.004L49.1432 11.3048L49.0471 11.2088L49.0592 11.0732L49.6811 10.2676L49.736 9.64648L50.1769 10.0875L53.7084 13.5924L57.7432 17.6286L57.9146 17.7997L57.7774 17.9993L53.8813 23.6629C54.3209 24.5564 54.7178 25.4911 55.0351 26.4298L61.7856 27.6682L62.0241 27.7119L62.024 39.6201Z" fill="#689367" stroke="#689367" stroke-width="0.582224"/>
</svg>
