<?xml version="1.0" encoding="UTF-8" standalone="no"?>
<svg
   width="333"
   height="333"
   viewBox="0 0 333 333"
   fill="none"
   version="1.1"
   id="svg10"
   xmlns="http://www.w3.org/2000/svg"
   xmlns:svg="http://www.w3.org/2000/svg">
  <defs
     id="defs10" />
  <path
     d="m 166.6847,115.63589 c 28.11177,0 51.04941,22.93769 51.04941,51.04949 0,28.11179 -22.93764,51.04948 -51.04941,51.04948 -28.11176,0 -51.04938,-22.93769 -51.04938,-51.04948 0,-28.1118 22.93762,-51.04949 51.04938,-51.04949 z m 0,7.63604 c -23.90718,0 -43.41339,19.50623 -43.41339,43.41345 0,23.90616 19.50621,43.41239 43.41339,43.41239 23.90615,0 43.41233,-19.50623 43.41233,-43.41239 0,-23.90722 -19.50618,-43.41345 -43.41233,-43.41345 z"
     fill="#689367"
     stroke="#689367"
     stroke-width="2.11231"
     id="path2"
     style="fill:#689367;fill-opacity:1;stroke:#689367;stroke-opacity:1" />
  <path
     d="m 198.84684,11.990925 0.23866,1.298549 6.73512,36.740733 c 5.17096,1.717847 10.19298,3.810631 15.06293,6.27824 l 30.80179,-21.198503 1.0868,-0.747762 0.93255,0.933327 42.25901,42.272275 1.11952,1.120055 -1.11952,1.120151 -4.98719,4.987817 -1.12059,-1.120045 -38.10406,-38.116704 -29.38761,20.249638 -0.771,0.531208 -2.30985,-1.155224 -0.0136,-0.0058 -0.0126,-0.0069 c -5.89647,-3.086 -12.15315,-5.716994 -18.49326,-7.712296 l -1.56628,-0.461215 -0.93465,-0.274392 -0.17643,-0.958156 -6.4806,-35.173077 h -50.30274 l -6.48164,35.173077 -0.17644,0.958156 -0.93464,0.274392 -1.56525,0.460996 c -6.3539,1.999105 -12.60212,4.538952 -18.47753,7.70352 l -0.021,0.01166 -0.0209,0.01072 -1.47439,0.73647 -0.83637,0.41882 -0.76985,-0.531135 -29.389191,-20.249643 -35.515325,35.524775 20.245385,29.399038 0.531202,0.771 -0.418732,0.83635 -0.737451,1.47335 -0.0058,0.0125 -0.0069,0.0125 c -3.088722,5.90709 -5.72163,12.1754 -7.717559,18.52714 l -0.451734,1.53883 -0.274391,0.93365 -0.958159,0.17639 -35.161619,6.48481 v 50.31757 l 35.161619,6.48377 0.958159,0.17639 0.274391,0.93459 0.451734,1.53881 0.381612,1.19136 c 1.809512,5.55751 4.037272,11.02102 6.741245,16.21204 l 0.586908,1.10688 0.01163,0.0207 0.01069,0.0209 0.737451,1.47335 0.418721,0.8375 -0.531212,0.76996 -20.245392,29.39714 35.515312,35.52605 29.389216,-20.24869 0.76995,-0.53041 0.83638,0.41833 1.47333,0.735 0.0126,0.006 0.0136,0.007 c 5.905,3.08927 12.17012,5.72438 18.5187,7.71947 l 1.54093,0.4532 0.93464,0.27462 0.17644,0.95779 6.48164,35.17435 h 50.30272 l 6.48058,-35.17435 0.17643,-0.95779 0.93454,-0.27462 1.53673,-0.45215 1.19239,-0.38118 c 5.95251,-1.93913 11.79833,-4.35878 17.31465,-7.32976 l 0.0199,-0.0125 0.023,-0.0104 1.47227,-0.7351 0.83638,-0.41833 0.771,0.5303 29.3876,20.24869 38.10405,-38.11573 0.82276,-0.82272 1.03187,0.53873 6.16797,3.22234 1.94966,1.01919 -1.58529,1.52718 -44.56036,42.91602 -0.93151,0.89774 -1.06567,-0.73301 -30.81234,-21.20768 c -4.8615,2.39221 -9.9448,4.55415 -15.05132,6.28202 l -6.50758,36.9713 -0.20325,1.25748 h -65.05168 l -0.23667,-1.298 -6.73618,-36.74169 c -5.17096,-1.71835 -10.193,-3.81059 -15.064,-6.27884 l -30.800782,21.19803 -1.086041,0.74779 -0.93227,-0.93157 -43.917281,-43.93095 -0.931317,-0.93157 0.746702,-1.08572 21.200581,-30.82297 c -2.391781,-4.86171 -4.552993,-9.94712 -6.279494,-15.05682 L 13.289407,199.14 11.99086,198.90235 v -64.80596 l 1.298547,-0.23768 36.729379,-6.73725 c 1.717422,-5.17307 3.809986,-10.1972 6.277071,-15.07033 l -21.193669,-30.808934 -0.746703,-1.086053 0.931313,-0.932372 43.917274,-43.928636 0.932364,-0.933327 1.086062,0.74776 30.812342,21.206737 c 4.86048,-2.392041 9.94376,-4.554215 15.05135,-6.281351 l 6.73722,-36.74591 0.23668,-1.298549 z"
     stroke="#689367"
     stroke-width="3.16847"
     id="path8"
     style="display:inline;fill:#689367;fill-opacity:1;fill-rule:evenodd;stroke:#689367;stroke-opacity:1" />
  <path
     d="m 321.00949,199.0873 -1.29799,0.23768 -36.73109,6.73724 c -1.71731,5.17202 -3.8085,10.19406 -6.27466,15.06612 l 20.25853,26.35548 2.12606,3.0713 -3.68708,-0.60637 -6.2496,3.90244 -0.6655,-0.10864 -0.3823,-0.55673 -20.99113,-30.48289 -0.53034,-0.76975 0.41834,-0.83645 0.73601,-1.47441 0.007,-0.0135 0.006,-0.0115 c 3.0882,-5.90814 5.7212,-12.1754 7.71734,-18.52715 l 0.45219,-1.53883 0.27564,-0.93458 0.95781,-0.17638 35.16163,-6.48482 v -50.31665 l -35.16163,-6.48376 -0.95781,-0.17638 -0.27564,-0.93459 -0.45219,-1.53883 c -1.99966,-6.36573 -4.54079,-12.6256 -7.70926,-18.51158 l -0.0104,-0.0209 -0.0104,-0.0209 -0.73715,-1.47229 -0.41835,-0.83646 0.53045,-0.76996 20.24339,-29.400537 -36.44698,-36.457147 -0.5228,-0.522863 0.066,-0.737407 3.61495,-4.410958 0.29901,-3.379922 2.39959,2.400118 18.98788,19.100146 21.95753,21.964832 0.93255,0.931391 -0.74669,1.086065 -21.20236,30.821472 c 2.39221,4.86257 4.55204,9.94905 6.27887,15.05768 l 36.73634,6.73934 1.29801,0.23769 z"
     fill="#689367"
     stroke="#689367"
     stroke-width="3.16847"
     id="path9"
     style="fill:#689367;fill-opacity:1;stroke:#689367;stroke-opacity:1" />
</svg>
