<?xml version="1.0" encoding="UTF-8" standalone="no"?>
<svg
   width="333"
   height="333"
   viewBox="0 0 333 333"
   fill="none"
   version="1.1"
   id="svg10"
   xmlns="http://www.w3.org/2000/svg"
   xmlns:svg="http://www.w3.org/2000/svg">
  <defs
     id="defs10">
    <linearGradient
       id="swatch3">
      <stop
         style="stop-color:#ffffff;stop-opacity:1;"
         offset="0"
         id="stop3" />
    </linearGradient>
  </defs>
  <path
     id="path1"
     style="display:inline;fill:#689367;fill-opacity:1;fill-rule:evenodd;stroke:#689367;stroke-opacity:1"
     d="m 134.23828,12.056641 -0.23633,1.298828 -6.73828,36.746093 c -5.10759,1.727137 -10.1903,3.88921 -15.05078,6.28125 l -30.812499,-21.207031 -1.085938,-0.748047 -0.933594,0.933594 -44.09375,43.863281 -0.93164,0.931641 0.746093,1.085938 21.371094,30.875002 c -2.467085,4.87313 -4.557968,9.89724 -6.27539,15.07031 l -36.730469,6.73828 -1.298828,0.23633 v 64.80664 l 1.298828,0.23828 36.734375,6.73633 c 1.7265,5.1097 3.887516,10.19493 6.279297,15.05664 l -21.199219,30.82422 -0.748047,1.08398 0.931641,0.93164 43.917968,43.93164 0.931641,0.93164 1.085938,-0.74804 30.800779,-21.19727 c 4.871,2.46825 9.89352,4.56095 15.06445,6.2793 l 6.73633,36.74023 0.23633,1.29883 h 65.05274 l 0.20312,-1.25781 6.50781,-36.9707 c 5.10652,-1.72787 10.18928,-3.891 15.05078,-6.28321 l 30.8125,21.20899 1.06446,0.73242 0.93164,-0.89844 44.56055,-42.91601 2.25976,-2.31446 -2.44726,-0.72851 -3.38282,-1.17774 0.72852,-0.45508 4.64844,1.23438 -3.08594,-3.69922 -20.25977,-26.35547 c 2.46616,-4.87206 4.55808,-9.89438 6.27539,-15.0664 l 36.73047,-6.73829 1.29883,-0.23632 v -64.80469 l -1.29883,-0.23828 -36.73633,-6.73828 c -1.72683,-5.10863 -3.88708,-10.19603 -6.27929,-15.0586 l 21.20312,-30.820309 0.7461,-1.085938 -0.93165,-0.931641 -0.67578,-0.675781 0.0469,-0.04687 -1.1211,-1.11914 -36.55078,-36.5625 -2.64453,-2.66211 -2.40039,-2.398437 v 0.01172 l -0.66211,-0.66211 -0.93359,-0.933594 -1.08594,0.748047 L 221.06055,56.375 c -4.86995,-2.467609 -9.89154,-4.56145 -15.0625,-6.279297 l -6.73438,-36.740234 -0.23828,-1.298828 z m 32.44727,103.580079 c 28.11177,0 51.0488,22.93703 51.04883,51.04883 0,28.11179 -22.93706,51.04881 -51.04883,51.04883 -28.11176,0 -51.05078,-22.93704 -51.05078,-51.04883 0,-28.1118 22.93902,-51.04883 51.05078,-51.04883 z" />
</svg>
