<?xml version="1.0" encoding="UTF-8" standalone="no"?>
<svg
   width="333"
   height="333"
   viewBox="0 0 333 333"
   fill="none"
   version="1.1"
   id="svg10"
   xmlns="http://www.w3.org/2000/svg"
   xmlns:svg="http://www.w3.org/2000/svg">
  <defs
     id="defs10" />
  <path
     d="m 166.5,2.11523 c 90.787,0 164.385,73.59757 164.385,164.38477 0,90.787 -73.598,164.385 -164.385,164.385 C 75.7128,330.885 2.11523,257.287 2.11523,166.5 2.11527,75.7128 75.7128,2.11527 166.5,2.11523 Z"
     fill="#ffffff"
     stroke="#ffffff"
     id="path1" />
  <path
     d="m 166.762,118.427 c 26.617,0 48.335,21.718 48.335,48.335 0,26.617 -21.718,48.335 -48.335,48.335 -26.617,0 -48.335,-21.718 -48.335,-48.335 0,-26.617 21.718,-48.335 48.335,-48.335 z m 0,7.23 c -22.636,0 -41.105,18.469 -41.105,41.105 0,22.635 18.469,41.104 41.105,41.104 22.635,0 41.104,-18.469 41.104,-41.104 0,-22.636 -18.469,-41.105 -41.104,-41.105 z"
     fill="#689367"
     stroke="#689367"
     stroke-width="2"
     id="path2" />
  <path
     d="m 182.191,65.476 h -32.254 l 16.127,-30.6069 z m -23.536,-5.2319 h 14.906 l -7.41,-14.1263 -7.409,14.1263 z"
     fill="#689367"
     id="path3" />
  <path
     d="M 166.064,298.228 149.937,267.62 h 32.254 z m -7.409,-25.376 7.409,14.127 7.41,-14.127 h -14.907 z"
     fill="#689367"
     id="path4" />
  <path
     d="M 64.595,182.201 33.9973,166.069 64.595,149.937 Z m -19.3524,-16.132 14.122,7.412 V 158.57 l -14.122,7.412 z"
     fill="#689367"
     id="path5" />
  <path
     d="m 267.62,149.937 30.598,16.132 -30.598,16.132 z m 19.353,16.132 -14.122,-7.412 v 14.911 l 14.122,-7.411 z"
     fill="#689367"
     id="path6" />
  <path
     d="m 202.502,57.4574 c 5.405,1.744 10.635,3.9245 15.691,6.5405 l 29.901,-20.5792 40.012,40.0246 -3.661,3.6622 -36.961,-36.9726 -28.855,19.8812 -1.394,-0.6973 c -5.667,-2.9647 -11.682,-5.4938 -17.784,-7.4122 l -1.482,-0.4358 -6.363,-34.5312 h -50.125 l -6.363,34.5312 -1.482,0.4358 c -6.102,1.9184 -12.117,4.3603 -17.783,7.4122 l -1.395,0.6973 -28.8541,-19.8812 -35.3927,35.4029 19.8761,28.8632 -0.6981,1.394 c -2.9639,5.668 -5.4919,11.685 -7.4097,17.789 l -0.4358,1.483 -34.5201,6.365 v 50.14 l 34.5201,6.365 0.4358,1.483 c 1.9178,6.104 4.3587,12.121 7.4097,17.789 l 0.6981,1.394 -19.8761,28.863 35.3927,35.403 28.8541,-19.881 1.395,0.697 c 5.666,2.965 11.681,5.494 17.783,7.412 l 1.482,0.436 6.363,34.532 h 50.125 l 6.363,-34.532 1.482,-0.436 c 6.102,-1.918 12.117,-4.36 17.784,-7.412 l 1.394,-0.697 28.855,19.881 36.961,-36.973 5.84,3.052 -42.191,40.635 -29.901,-20.579 c -5.056,2.529 -10.373,4.796 -15.691,6.541 l -6.538,35.664 v 0.174 h -58.841 l -6.538,-35.664 c -5.405,-1.744 -10.635,-3.924 -15.691,-6.541 l -29.9005,20.58 -41.5816,-41.594 20.5733,-29.909 c -2.528,-5.058 -4.7945,-10.377 -6.538,-15.697 l -35.654,-6.539 v -58.859 l 35.654,-6.54 c 1.7435,-5.406 3.9228,-10.639 6.538,-15.696 L 43.4119,85.0122 84.9935,43.4187 114.894,63.9979 c 5.056,-2.5287 10.373,-4.7965 15.691,-6.5405 l 6.538,-35.6642 h 58.841 z"
     fill="#689367"
     id="path7" />
  <path
     d="m 197.214,20.2932 0.226,1.2295 6.377,34.7871 c 4.896,1.6265 9.651,3.608 14.262,5.9444 l 29.164,-20.0713 1.029,-0.708 0.883,0.8837 40.012,40.0245 1.06,1.0605 -1.06,1.0606 -4.722,4.7226 -1.061,-1.0605 -36.078,-36.0899 -27.825,19.1729 -0.73,0.5029 -2.187,-1.0938 -0.013,-0.0058 -0.012,-0.0068 c -5.583,-2.9215 -11.507,-5.4126 -17.51,-7.3018 l -1.483,-0.4365 -0.885,-0.2598 -0.167,-0.9072 -6.136,-33.3028 H 142.73 l -6.137,33.3028 -0.167,0.9072 -0.885,0.2598 -1.482,0.4365 c -6.016,1.8928 -11.932,4.2976 -17.495,7.2939 l -0.02,0.0108 -0.02,0.0097 -1.396,0.6973 -0.792,0.3965 -0.729,-0.5029 -27.8265,-19.1729 -33.6269,33.6358 19.1689,27.8358 0.5029,0.73 -0.3964,0.792 -0.6983,1.395 -0.0058,0.012 -0.0069,0.012 c -2.9249,5.593 -5.4178,11.528 -7.3076,17.542 l -0.4277,1.457 -0.2598,0.884 -0.9072,0.167 -33.292,6.14 v 47.642 l 33.292,6.139 0.9072,0.167 0.2598,0.885 0.4277,1.457 0.3613,1.128 c 1.7133,5.262 3.8226,10.435 6.3828,15.35 l 0.5557,1.048 0.0107,0.02 0.0098,0.02 0.6983,1.395 0.3964,0.793 -0.5029,0.729 -19.1689,27.834 33.6269,33.637 27.8265,-19.172 0.729,-0.502 0.792,0.396 1.395,0.696 0.012,0.006 0.013,0.007 c 5.591,2.925 11.523,5.42 17.534,7.309 l 1.459,0.429 0.885,0.26 0.167,0.907 6.137,33.304 h 47.628 l 6.136,-33.304 0.167,-0.907 0.885,-0.26 1.455,-0.428 1.129,-0.361 c 5.636,-1.836 11.171,-4.127 16.394,-6.94 l 0.019,-0.012 0.022,-0.01 1.394,-0.696 0.792,-0.396 0.73,0.502 27.825,19.172 36.078,-36.089 0.779,-0.779 0.977,0.51 5.84,3.051 1.846,0.965 -1.501,1.446 -42.191,40.634 -0.882,0.85 -1.009,-0.694 -29.174,-20.08 c -4.603,2.265 -9.416,4.312 -14.251,5.948 l -6.354,34.659 v 1.537 h -61.592 l -0.224,-1.229 -6.378,-34.788 c -4.896,-1.627 -9.651,-3.608 -14.263,-5.945 l -29.163,20.072 -1.0283,0.708 -0.8828,-0.882 -41.5821,-41.595 -0.8818,-0.882 0.707,-1.028 20.0733,-29.184 c -2.2643,-4.604 -4.3106,-9.419 -5.9453,-14.257 l -34.7813,-6.379 -1.2295,-0.225 v -61.36 l 1.2295,-0.225 34.7764,-6.379 c 1.6261,-4.898 3.6074,-9.655 5.9433,-14.269 L 42.176,85.8625 l -0.707,-1.0283 0.8818,-0.8828 41.5821,-41.5928 0.8828,-0.8837 1.0283,0.708 29.174,20.0791 c 4.602,-2.2648 9.415,-4.312 14.251,-5.9473 l 6.379,-34.792 0.224,-1.2295 z"
     stroke="#689367"
     stroke-width="3"
     id="path8" />
  <path
     d="m 312.881,197.441 -1.229,0.225 -34.778,6.379 c -1.626,4.897 -3.606,9.652 -5.941,14.265 l 19.18132,24.95406 2.013,2.908 -3.491,-0.574 -5.91732,3.69494 -0.63,-0.103 -0.362,-0.527 -19.875,-28.862 -0.502,-0.729 0.396,-0.792 0.697,-1.396 0.007,-0.013 0.006,-0.011 c 2.924,-5.594 5.417,-11.528 7.307,-17.542 l 0.428,-1.457 0.261,-0.885 0.907,-0.167 33.292,-6.14 v -47.641 l -33.292,-6.139 -0.907,-0.167 -0.261,-0.885 -0.428,-1.457 c -1.893,-6.027 -4.299,-11.954 -7.299,-17.527 l -0.01,-0.02 -0.01,-0.02 -0.698,-1.394 -0.396,-0.792 0.502,-0.729 19.167,-27.8372 -34.509,-34.5186 -0.495,-0.4951 0.062,-0.6982 3.42274,-4.176415 0.283,-3.2002 2.272,2.2725 17.97826,18.084515 20.79,20.7969 0.883,0.8819 -0.707,1.0283 -20.075,29.1826 c 2.265,4.604 4.31,9.42 5.945,14.257 l 34.783,6.381 1.229,0.225 z"
     fill="#689367"
     stroke="#689367"
     stroke-width="3"
     id="path9" />
  <path
     d="m 312.881,197.441 -1.229,0.225 -34.778,6.379 c -1.626,4.897 -3.606,9.652 -5.941,14.265 l 19.07478,25.00428 2.013,2.908 -3.491,-0.574 -5.81078,3.64472 -0.63,-0.103 -0.362,-0.527 -19.875,-28.862 -0.502,-0.729 0.396,-0.792 0.697,-1.396 0.007,-0.013 0.006,-0.011 c 2.924,-5.594 5.417,-11.528 7.307,-17.542 l 0.428,-1.457 0.261,-0.885 0.907,-0.167 33.292,-6.14 v -47.641 l -33.292,-6.139 -0.907,-0.167 -0.261,-0.885 -0.428,-1.457 c -1.893,-6.027 -4.299,-11.954 -7.299,-17.527 l -0.01,-0.02 -0.01,-0.02 -0.698,-1.394 -0.396,-0.792 0.502,-0.729 19.167,-27.8372 -34.509,-34.5186 -0.495,-0.4951 0.062,-0.6982 3.2046,-4.151427 0.283,-3.2002 2.272,2.2725 18.1964,18.059527 20.79,20.7969 0.883,0.8819 -0.707,1.0283 -20.075,29.1826 c 2.265,4.604 4.31,9.42 5.945,14.257 l 34.783,6.381 1.229,0.225 z"
     stroke="#689367"
     stroke-width="3"
     id="path10" />
</svg>
