<?xml version="1.0" encoding="UTF-8" standalone="no"?>
<svg
   width="32"
   height="32"
   viewBox="0 0 32 32"
   fill="none"
   version="1.1"
   id="svg10"
   xmlns="http://www.w3.org/2000/svg"
   xmlns:svg="http://www.w3.org/2000/svg">
  <defs
     id="defs10" />
  <path
     d="m 16.017749,11.112158 c 2.701431,0 4.905649,2.204222 4.905649,4.905656 0,2.701433 -2.204218,4.905656 -4.905649,4.905656 -2.701431,0 -4.905647,-2.204223 -4.905647,-4.905656 0,-2.701434 2.204216,-4.905656 4.905647,-4.905656 z m 0,0.733793 c -2.297387,0 -4.171857,1.874472 -4.171857,4.171863 0,2.297289 1.87447,4.171762 4.171857,4.171762 2.297287,0 4.171755,-1.874473 4.171755,-4.171762 0,-2.297391 -1.874468,-4.171863 -4.171755,-4.171863 z"
     fill="#689367"
     stroke="#689367"
     stroke-width="0.202985"
     id="path2" />
  <path
     d="m 19.711504,4.8616809 c 0.548568,0.1770036 1.024688,0.3826839 1.537834,0.6481887 L 24.248915,3.4212285 28.344997,7.5576571 27.973431,7.9293442 24.257317,4.2159523 21.293591,6.1946889 21.148202,6.1668946 C 20.573044,5.865991 19.900065,5.6210255 19.280757,5.4263213 L 19.138156,5.3156892 18.531422,1.8813321 13.530037,1.8618009 12.860802,5.3508455 12.675234,5.3989758 C 12.055926,5.5936796 11.464979,5.8571386 10.889923,6.1668859 L 10.678026,6.264992 7.7807957,4.2159423 4.2004142,7.7700212 6.2176926,10.699428 6.1468363,10.840909 c -0.3008127,0.575262 -0.580824,1.185944 -0.7754662,1.805458 l -0.036422,0.19348 -3.4840068,0.638191 0.082031,5.069318 3.4449444,0.618659 0.044234,0.162232 c 0.1946422,0.619513 0.4384681,1.230195 0.7481224,1.805455 l 0.059138,0.188356 -2.0172783,2.88642 3.5256939,3.55018 2.9362923,-2.03731 0.172834,0.08246 c 0.575056,0.300926 1.189441,0.557602 1.808749,0.752265 l 0.173848,0.05987 0.645798,3.535999 5.032635,-0.04297 0.665328,-3.46178 0.150413,-0.04425 c 0.619308,-0.194663 1.229787,-0.44251 1.804945,-0.752265 l 0.153202,-0.109803 2.92857,2.017779 3.751271,-3.736868 0.604438,0.333193 -4.278174,4.155412 -3.038639,-2.096434 c -0.513146,0.256675 -1.005908,0.486759 -1.545646,0.663865 l -0.683089,3.623545 -0.01563,0.07232 -6.018806,-0.07813 -0.686998,-3.471169 c -0.548563,-0.176998 -0.981713,-0.394346 -1.49486,-0.659953 L 7.7110323,28.539878 3.4243976,24.294949 5.5319683,21.239868 C 5.2753941,20.726523 5.064893,20.22184 4.8879402,19.681897 l -3.61862,-0.66366 0.015625,-6.016736 3.5951825,-0.659857 c 0.1769528,-0.54867 0.4137608,-1.071969 0.6791844,-1.585219 L 3.4673663,7.7168891 7.6993135,3.4524784 10.741808,5.5333071 c 0.513147,-0.2566446 1.029347,-0.45556 1.569084,-0.6325636 l 0.675279,-3.627473 6.007088,0.027344 z"
     fill="#689367"
     id="path7"
     style="fill:#689367;fill-opacity:1;stroke:none;stroke-width:0;stroke-dasharray:none" />
  <path
     d="m 19.108405,1.1522811 0.02293,0.1247855 0.647218,3.5306409 c 0.49691,0.1650784 0.979507,0.3661868 1.447489,0.6033143 l 2.959932,-2.0370932 0.104438,-0.071857 0.08961,0.089689 4.060926,4.0622005 0.107581,0.1076329 -0.107581,0.1076422 -0.47925,0.4793097 -0.107684,-0.1076319 -3.661652,-3.6628664 -2.824034,1.9459111 -0.07409,0.051047 -0.221967,-0.1110125 -0.0013,-5.587e-4 -0.0012,-6.62e-4 C 20.503143,5.96622 19.901901,5.7133917 19.292641,5.521651 L 19.142127,5.47733 19.052307,5.450962 19.035357,5.358887 18.412597,1.9788916 H 13.5787 l -0.622861,3.3799954 -0.01695,0.092075 -0.08982,0.026368 -0.150413,0.0443 c -0.610585,0.1921061 -1.211015,0.4361755 -1.775619,0.7402781 l -0.002,0.00112 -0.002,0.00103 -0.141683,0.070772 -0.08037,0.040247 -0.07398,-0.05104 -2.8241863,-1.9459117 -3.4128841,3.4137922 1.9455025,2.8251324 0.051047,0.07409 -0.040238,0.08037 -0.070866,0.141584 -5.587e-4,0.0012 -6.619e-4,0.0012 C 5.9733039,11.483142 5.7202917,12.085503 5.5284907,12.69588 l -0.04341,0.147876 -0.026368,0.08972 -0.092075,0.01695 -3.3788943,0.623165 v 4.835322 l 3.3788943,0.623065 0.092075,0.01695 0.026368,0.08981 0.04341,0.147875 0.036672,0.114484 c 0.173887,0.534055 0.387966,1.059077 0.6478073,1.557914 l 0.0564,0.106366 0.00112,0.002 0.00103,0.002 0.070866,0.141584 0.040237,0.08048 -0.051047,0.07399 -1.9455031,2.824951 3.4128828,3.413914 2.8241883,-1.94582 0.07399,-0.05097 0.08037,0.0402 0.141581,0.07063 0.0012,6.1e-4 0.0013,7.12e-4 c 0.567448,0.296867 1.169501,0.550091 1.779574,0.741812 l 0.148078,0.04355 0.08982,0.02639 0.01695,0.09204 0.622861,3.380118 h 4.833895 l 0.622758,-3.380118 0.01695,-0.09204 0.08981,-0.02639 0.147674,-0.04345 0.114584,-0.03663 c 0.572012,-0.186343 1.133773,-0.418862 1.66387,-0.704361 l 0.0019,-0.0012 0.0022,-0.001 0.14148,-0.07064 0.08037,-0.0402 0.07409,0.05096 2.824034,1.94582 3.661651,-3.662773 0.07906,-0.07906 0.09916,0.05177 0.592718,0.309654 0.187355,0.09794 -0.15234,0.146757 -4.282077,4.124061 -0.08951,0.08627 -0.102407,-0.07044 -2.960946,-2.037975 c -0.467171,0.229882 -0.955656,0.437636 -1.446373,0.603678 l -0.625353,3.552797 -0.01953,0.120839 h -6.251213 l -0.02274,-0.124733 -0.64732,-3.530732 C 11.715708,27.027245 11.23311,26.826188 10.765026,26.589 l -2.9598343,2.037047 -0.1043643,0.07186 -0.089587,-0.08952 -4.2202792,-4.221593 -0.089496,-0.08952 0.071755,-0.104334 2.037293,-2.961967 C 5.1806724,20.763782 4.9729883,20.275093 4.8070783,19.784072 L 1.2770243,19.136649 1.152239,19.113812 v -6.2276 l 0.1247853,-0.02284 3.5295499,-0.647423 c 0.1650375,-0.497112 0.3661248,-0.979912 0.603202,-1.4482 L 3.3731832,7.8070578 3.3014279,7.7026923 3.3909235,7.613095 7.611202,3.3917247 7.7007988,3.3020356 7.8051651,3.3738924 10.766111,5.411777 c 0.467072,-0.2298658 0.955556,-0.4376423 1.446375,-0.6036133 l 0.647422,-3.5311384 0.02274,-0.1247855 z"
     stroke="#689367"
     stroke-width="0.304478"
     id="path8"
     style="display:inline;fill:none;fill-opacity:1;fill-rule:evenodd;stroke:#689367;stroke-opacity:1" />
  <path
     d="m 30.847759,19.131512 -0.124733,0.02284 -3.529713,0.647423 c -0.165028,0.49701 -0.365983,0.979609 -0.602971,1.447795 l 1.946766,2.532658 0.204305,0.295141 -0.354313,-0.05827 -0.600562,0.375009 -0.06395,-0.01044 -0.03674,-0.0535 -2.017166,-2.929286 -0.05096,-0.07397 0.0402,-0.08038 0.07073,-0.141684 7.13e-4,-0.0013 6.11e-4,-0.0011 c 0.296763,-0.567749 0.549785,-1.170008 0.741606,-1.780386 l 0.04345,-0.147875 0.02649,-0.08981 0.09204,-0.01695 3.378896,-0.623165 V 13.60903 l -3.378896,-0.623064 -0.09204,-0.01695 -0.02649,-0.08981 -0.04345,-0.147875 C 26.279422,12.119608 26.03523,11.51806 25.730752,10.95244 l -10e-4,-0.002 -0.001,-0.002 -0.07084,-0.141482 -0.0402,-0.08038 0.05097,-0.07399 1.945311,-2.8252773 -3.502412,-3.5033895 -0.05024,-0.050245 0.0063,-0.070862 0.347383,-0.4238758 0.02873,-0.3247973 0.230591,0.230642 1.824661,1.8354494 2.110033,2.1107346 0.08962,0.089503 -0.07175,0.1043666 -2.037465,2.9618233 c 0.229882,0.467274 0.437434,0.956064 0.603375,1.446984 l 3.530219,0.647625 0.124734,0.02284 z"
     fill="#689367"
     stroke="#689367"
     stroke-width="0.304478"
     id="path9" />
  <path
     d="m 30.847759,19.131512 -0.124733,0.02284 -3.529713,0.647423 c -0.165028,0.49701 -0.365983,0.979609 -0.602971,1.447795 l 1.935953,2.537756 0.204303,0.295139 -0.35431,-0.05827 -0.58975,0.369912 -0.06395,-0.01044 -0.03674,-0.0535 -2.017166,-2.929286 -0.05096,-0.07397 0.0402,-0.08038 0.07073,-0.141684 7.13e-4,-0.0013 6.11e-4,-0.0011 c 0.296763,-0.567749 0.549785,-1.170008 0.741606,-1.780386 l 0.04345,-0.147875 0.02649,-0.08981 0.09204,-0.01695 3.378896,-0.623165 V 13.60903 l -3.378896,-0.623064 -0.09204,-0.01695 -0.02649,-0.08981 -0.04345,-0.147875 C 26.279422,12.119608 26.03523,11.51806 25.730752,10.95244 l -10e-4,-0.002 -0.001,-0.002 -0.07084,-0.141482 -0.0402,-0.08038 0.05097,-0.07399 1.945311,-2.8252773 -3.502412,-3.5033895 -0.05024,-0.050245 0.0063,-0.070862 0.325244,-0.4213402 0.02873,-0.324797 0.230592,0.2306422 1.846801,1.8329133 2.110032,2.1107346 0.08962,0.089503 -0.07176,0.1043666 -2.037466,2.9618233 c 0.229881,0.467274 0.437434,0.956064 0.603376,1.446984 l 3.530218,0.647625 0.124734,0.02284 z"
     stroke="#689367"
     stroke-width="0.304478"
     id="path10" />
</svg>
