<svg width="196" height="412" viewBox="0 0 196 412" fill="none" xmlns="http://www.w3.org/2000/svg">
<path d="M185.107 350.8L184.876 394.899L187.876 394.915L188.106 350.815L185.107 350.8Z" fill="#689367"/>
<path d="M186.402 412C183.902 412 181.502 411 179.802 409.2C178.002 407.4 177.102 405.1 177.102 402.5C177.102 397.3 181.302 393.2 186.502 393.2C191.702 393.2 195.902 397.5 195.802 402.6C195.802 407.8 191.602 411.9 186.402 411.9V412ZM186.402 396.2C182.902 396.2 180.002 399 180.002 402.5C180.002 406 182.802 408.9 186.302 408.9C189.802 408.9 192.702 406.1 192.702 402.6C192.702 399.1 189.902 396.2 186.402 396.2Z" fill="#689367"/>
<path d="M62.5018 101.2C60.0018 101.2 57.6018 100.2 55.9018 98.4C54.2018 96.6 53.2018 94.3 53.2018 91.8C53.2018 89.3 54.2018 86.9 56.0018 85.2C57.8018 83.4 60.1018 82.5 62.6018 82.5C65.1018 82.5 67.5018 83.5 69.2018 85.3C71.0018 87.1 71.9018 89.4 71.9018 91.9C71.9018 94.4 70.9018 96.8 69.1018 98.5C67.3018 100.3 65.0018 101.2 62.5018 101.2ZM62.5018 85.4C60.8018 85.4 59.2018 86.1 58.0018 87.3C56.8018 88.5 56.1018 90.1 56.1018 91.8C56.1018 93.5 56.8018 95.1 58.0018 96.3C59.2018 97.5 60.8018 98.2 62.5018 98.2C64.2018 98.2 65.8018 97.5 67.0018 96.3C68.2018 95.1 68.9018 93.5 68.9018 91.8C68.9018 90.1 68.2018 88.5 67.0018 87.3C65.8018 86.1 64.2018 85.4 62.5018 85.4Z" fill="#689367"/>
<path d="M62.5018 354.9C60.0018 354.9 57.6018 353.9 55.9018 352.1C54.2018 350.3 53.2018 348 53.2018 345.5C53.2018 343 54.2018 340.6 56.0018 338.9C57.8018 337.1 60.1018 336.2 62.6018 336.2C65.1018 336.2 67.5018 337.2 69.2018 339C71.0018 340.8 71.9018 343.1 71.9018 345.6C71.9018 348.1 70.9018 350.5 69.1018 352.2C67.3018 354 65.0018 354.9 62.5018 354.9ZM62.5018 339.1C60.8018 339.1 59.2018 339.8 58.0018 341C56.8018 342.2 56.1018 343.8 56.1018 345.5C56.1018 347.2 56.8018 348.8 58.0018 350C59.2018 351.2 60.8018 351.9 62.5018 351.9C64.2018 351.9 65.8018 351.2 67.0018 350C68.2018 348.8 68.9018 347.2 68.9018 345.5C68.9018 343.8 68.2018 342.2 67.0018 341C65.8018 339.8 64.2018 339.1 62.5018 339.1Z" fill="#689367"/>
<path d="M34.3017 283.3C31.8017 283.3 29.4017 282.3 27.7017 280.5C26.0017 278.7 25.0017 276.4 25.0017 273.9C25.0017 271.4 26.0017 269 27.8017 267.3C29.6017 265.5 31.9017 264.6 34.4017 264.6C39.6017 264.6 43.8017 268.8 43.8017 274C43.8017 276.5 42.8017 278.9 41.0017 280.6C39.2017 282.4 36.9017 283.3 34.4017 283.3H34.3017ZM34.3017 267.6C32.6017 267.6 31.0017 268.3 29.8017 269.5C28.6017 270.7 27.9017 272.3 27.9017 274C27.9017 275.7 28.6017 277.3 29.8017 278.5C31.0017 279.7 32.6017 280.4 34.3017 280.4C36.0017 280.4 37.6017 279.7 38.8017 278.5C40.0017 277.3 40.7017 275.7 40.7017 274C40.7017 270.5 37.8017 267.6 34.3017 267.6Z" fill="#689367"/>
<path d="M152.802 18.3C147.602 18.3 143.402 14.1 143.502 9.1C143.502 4.1 147.702 0 152.902 0C158.102 0 162.302 4.2 162.202 9.2C162.202 11.7 161.202 13.9 159.402 15.7C157.602 17.4 155.302 18.3 152.802 18.3ZM152.702 3C149.202 3 146.302 5.7 146.302 9.1C146.302 12.5 149.102 15.3 152.602 15.3C154.302 15.3 155.902 14.7 157.102 13.5C158.302 12.3 159.002 10.8 159.002 9.2C159.002 5.8 156.202 3 152.702 3Z" fill="#689367"/>
<path d="M9.30175 162.6C4.10175 162.6 -0.0982506 158.4 0.00174941 153.4C0.00174941 150.9 1.00175 148.7 2.80175 146.9C4.60175 145.2 6.90175 144.3 9.40175 144.3C14.6017 144.3 18.8018 148.5 18.7017 153.5C18.7017 156 17.7017 158.2 15.9017 160C14.1017 161.7 11.8017 162.6 9.30175 162.6ZM9.30175 147.3C7.60175 147.3 6.00175 147.9 4.80175 149.1C3.60175 150.3 2.90175 151.8 2.90175 153.4C2.90175 156.8 5.70175 159.6 9.20175 159.6C10.9017 159.6 12.5017 159 13.7017 157.8C14.9017 156.6 15.6017 155.1 15.6017 153.5C15.6017 150.1 12.8017 147.3 9.30175 147.3Z" fill="#689367"/>
<path d="M113.902 182.3L86.5018 155H17.7018V152H87.7018L116.002 180.2L113.902 182.3Z" fill="#689367"/>
<path d="M69.1017 341L67.0017 338.9L100.302 305.6H140.302V308.6H101.602L69.1017 341Z" fill="#689367"/>
<path d="M141.402 121.6H118.002L90.0017 93.7H70.9017V90.7H91.3017L119.302 118.6H141.402V121.6Z" fill="#689367"/>
<path d="M64.0018 275.4H41.7018V272.4H62.8018L90.8018 244.5H114.202V247.5H92.0018L64.0018 275.4Z" fill="#689367"/>
<path d="M186.102 76.2L151.302 41.5V17.8H154.302V40.3L188.202 74.1L186.102 76.2Z" fill="#689367"/>
<path d="M152.802 39.4H127.702V42.4H152.802V39.4Z" fill="#689367"/>
<path d="M120.302 50.1C115.102 50.1 110.902 45.9 111.002 40.9C111.002 35.9 115.202 31.8 120.402 31.8C125.602 31.8 129.802 36 129.702 41C129.702 43.5 128.702 45.7 126.902 47.5C125.102 49.2 122.802 50.1 120.302 50.1ZM120.302 34.8C116.802 34.8 113.902 37.5 113.902 40.9C113.902 44.3 116.702 47.1 120.202 47.1C121.902 47.1 123.502 46.5 124.702 45.3C125.902 44.1 126.602 42.6 126.602 41C126.602 37.6 123.802 34.8 120.302 34.8Z" fill="#689367"/>
</svg>
