<svg width="150" height="150" viewBox="0 0 150 150" fill="none" xmlns="http://www.w3.org/2000/svg">
<path d="M56.25 108.75L108.75 75L56.25 41.25V108.75ZM75 150C64.625 150 54.875 148.031 45.75 144.094C36.625 140.156 28.6875 134.812 21.9375 128.062C15.1875 121.312 9.84375 113.375 5.90625 104.25C1.96875 95.125 0 85.375 0 75C0 64.625 1.96875 54.875 5.90625 45.75C9.84375 36.625 15.1875 28.6875 21.9375 21.9375C28.6875 15.1875 36.625 9.84375 45.75 5.90625C54.875 1.96875 64.625 0 75 0C85.375 0 95.125 1.96875 104.25 5.90625C113.375 9.84375 121.312 15.1875 128.062 21.9375C134.812 28.6875 140.156 36.625 144.094 45.75C148.031 54.875 150 64.625 150 75C150 85.375 148.031 95.125 144.094 104.25C140.156 113.375 134.812 121.312 128.062 128.062C121.312 134.812 113.375 140.156 104.25 144.094C95.125 148.031 85.375 150 75 150ZM75 135C91.75 135 105.938 129.188 117.562 117.562C129.188 105.938 135 91.75 135 75C135 58.25 129.188 44.0625 117.562 32.4375C105.938 20.8125 91.75 15 75 15C58.25 15 44.0625 20.8125 32.4375 32.4375C20.8125 44.0625 15 58.25 15 75C15 91.75 20.8125 105.938 32.4375 117.562C44.0625 129.188 58.25 135 75 135Z" fill="#E3E3E3"/>
</svg>
