<?xml version="1.0" encoding="UTF-8"?>
<svg id="Layer_4" xmlns="http://www.w3.org/2000/svg" version="1.1" viewBox="0 0 972.4 439">
  <!-- Generator: Adobe Illustrator 29.2.1, SVG Export Plug-In . SVG Version: 2.1.0 Build 116)  -->
  <defs>
    <style>
      .st0 {
        fill: #689367;
      }
    </style>
  </defs>
  <g>
    <path class="st0" d="M409.3,249.5l-10.1-20.3h-7.9v20.3h-15.5v-60h30.1c13.3,0,20.9,8.8,20.9,20s-6.4,16-12,18l12.2,22h-17.7ZM403.6,202.5h-12.2v13.5h12.2c4,0,7.5-2.6,7.5-6.8s-3.4-6.8-7.5-6.8Z"/>
    <path class="st0" d="M462.6,188.5c18.4,0,32,12.8,32,31s-13.7,31-32,31-32.1-12.8-32.1-31,13.8-31,32.1-31ZM462.6,202.1c-10,0-16.4,7.6-16.4,17.4s6.4,17.4,16.4,17.4,16.3-7.6,16.3-17.4-6.4-17.4-16.3-17.4Z"/>
    <path class="st0" d="M500.7,249.5v-60h34c11.9,0,17.5,7.7,17.5,15.3s-4.6,12.5-10.3,13.8c6.4,1,11.4,7.1,11.4,14.7s-5.8,16.3-17.6,16.3h-35.1ZM516.2,212.7h15c3.1,0,5.3-2.2,5.3-5.2s-2.2-5.1-5.3-5.1h-15v10.3ZM516.2,236.6h15.6c3.7,0,5.9-2.2,5.9-5.5s-2.2-5.7-5.9-5.7h-15.6v11.2Z"/>
    <path class="st0" d="M589.1,188.5c18.4,0,32,12.8,32,31s-13.7,31-32,31-32.1-12.8-32.1-31,13.8-31,32.1-31ZM589.1,202.1c-10,0-16.4,7.6-16.4,17.4s6.4,17.4,16.4,17.4,16.3-7.6,16.3-17.4-6.4-17.4-16.3-17.4Z"/>
    <path class="st0" d="M638.6,249.5v-46.5h-16.8v-13.5h49v13.5h-16.7v46.5h-15.5Z"/>
    <path class="st0" d="M716.9,249.5v-24.1h-24.9v24.1h-15.5v-60h15.5v22.4h24.9v-22.4h15.5v60h-15.5Z"/>
    <path class="st0" d="M782.8,249.5l-3.1-9.1h-24.9l-3.1,9.1h-16.8l22.6-60h19.4l22.7,60h-16.8ZM767.3,203l-8.4,24.4h16.8l-8.5-24.4Z"/>
    <path class="st0" d="M843.1,249.5l-25.4-36.3v36.3h-15.5v-60h15.9l24.3,34.6v-34.6h15.6v60h-14.9Z"/>
    <path class="st0" d="M867.1,249.5v-60h15.5v60h-15.5Z"/>
    <path class="st0" d="M933,249.5l-3.1-9.1h-24.9l-3.1,9.1h-16.8l22.6-60h19.4l22.7,60h-16.8ZM917.5,203l-8.4,24.4h16.8l-8.5-24.4Z"/>
  </g>
  <rect class="st0" x="187" y="381.3" width="44.1" height="3" transform="translate(-174.7 590.1) rotate(-89.7)"/>
  <path class="st0" d="M209.1,422.2h0c-2.5,0-4.9-1-6.6-2.8-1.8-1.8-2.7-4.1-2.7-6.7,0-5.2,4.2-9.3,9.4-9.3h0c5.2,0,9.4,4.3,9.3,9.4,0,5.2-4.2,9.3-9.4,9.3ZM209.1,406.4c-3.5,0-6.4,2.8-6.4,6.3,0,3.5,2.8,6.4,6.3,6.4h0c3.5,0,6.4-2.8,6.4-6.3,0-3.5-2.8-6.4-6.3-6.4h0Z"/>
  <path class="st0" d="M85.2,111.4h0c-2.5,0-4.9-1-6.6-2.8s-2.7-4.1-2.7-6.6c0-2.5,1-4.9,2.8-6.6,1.8-1.8,4.1-2.7,6.6-2.7h0c2.5,0,4.9,1,6.6,2.8,1.8,1.8,2.7,4.1,2.7,6.6,0,2.5-1,4.9-2.8,6.6-1.8,1.8-4.1,2.7-6.6,2.7ZM85.2,95.6c-1.7,0-3.3.7-4.5,1.9-1.2,1.2-1.9,2.8-1.9,4.5,0,1.7.7,3.3,1.9,4.5,1.2,1.2,2.8,1.9,4.5,1.9h0c1.7,0,3.3-.7,4.5-1.9,1.2-1.2,1.9-2.8,1.9-4.5h0c0-1.7-.7-3.3-1.9-4.5-1.2-1.2-2.8-1.9-4.5-1.9h0Z"/>
  <path class="st0" d="M85.2,365.1h0c-2.5,0-4.9-1-6.6-2.8s-2.7-4.1-2.7-6.6c0-2.5,1-4.9,2.8-6.6,1.8-1.8,4.1-2.7,6.6-2.7h0c2.5,0,4.9,1,6.6,2.8,1.8,1.8,2.7,4.1,2.7,6.6,0,2.5-1,4.9-2.8,6.6-1.8,1.8-4.1,2.7-6.6,2.7ZM85.2,349.3c-1.7,0-3.3.7-4.5,1.9-1.2,1.2-1.9,2.8-1.9,4.5,0,1.7.7,3.3,1.9,4.5,1.2,1.2,2.8,1.9,4.5,1.9h0c1.7,0,3.3-.7,4.5-1.9,1.2-1.2,1.9-2.8,1.9-4.5h0c0-1.7-.7-3.3-1.9-4.5-1.2-1.2-2.8-1.9-4.5-1.9h0Z"/>
  <path class="st0" d="M57,293.5h0c-2.5,0-4.9-1-6.6-2.8s-2.7-4.1-2.7-6.6c0-2.5,1-4.9,2.8-6.6,1.8-1.8,4.1-2.7,6.6-2.7,5.2,0,9.4,4.2,9.4,9.4h0c0,2.5-1,4.9-2.8,6.6-1.8,1.8-4.1,2.7-6.6,2.7ZM57,277.8c-1.7,0-3.3.7-4.5,1.9-1.2,1.2-1.9,2.8-1.9,4.5,0,1.7.7,3.3,1.9,4.5,1.2,1.2,2.8,1.9,4.5,1.9h0c1.7,0,3.3-.7,4.5-1.9,1.2-1.2,1.9-2.8,1.9-4.5,0-3.5-2.9-6.4-6.4-6.4h0Z"/>
  <path class="st0" d="M175.5,28.5h0c-5.2,0-9.4-4.2-9.3-9.2,0-5,4.2-9.1,9.4-9.1h0c5.2,0,9.4,4.2,9.3,9.2h-1.5s1.5,0,1.5,0c0,2.5-1,4.7-2.8,6.5-1.8,1.7-4.1,2.6-6.6,2.6ZM175.4,13.2c-3.5,0-6.4,2.7-6.4,6.1,0,3.4,2.8,6.2,6.3,6.2,1.7,0,3.3-.6,4.5-1.8,1.2-1.2,1.9-2.7,1.9-4.3,0-3.4-2.8-6.2-6.3-6.2h0Z"/>
  <path class="st0" d="M32,172.8h0c-5.2,0-9.4-4.2-9.3-9.2,0-2.5,1-4.7,2.8-6.5,1.8-1.7,4.1-2.6,6.6-2.6h0c5.2,0,9.4,4.2,9.3,9.2h-1.5s1.5,0,1.5,0c0,2.5-1,4.7-2.8,6.5-1.8,1.7-4.1,2.6-6.6,2.6ZM32,157.5c-1.7,0-3.3.6-4.5,1.8-1.2,1.2-1.9,2.7-1.9,4.3,0,3.4,2.8,6.2,6.3,6.2,1.7,0,3.3-.6,4.5-1.8,1.2-1.2,1.9-2.7,1.9-4.3,0-3.4-2.8-6.2-6.3-6.2h0Z"/>
  <path class="st0" d="M302.4,278.2c-29.9,0-54.3-24.4-54.3-54.3s24.4-54.3,54.3-54.3,54.3,24.4,54.3,54.3-24.4,54.3-54.3,54.3ZM302.4,175.6c-26.6,0-48.3,21.7-48.3,48.3s21.7,48.3,48.3,48.3,48.3-21.7,48.3-48.3-21.7-48.3-48.3-48.3Z"/>
  <path class="st0" d="M320.9,107.5h-37l18.5-35.1,18.5,35.1ZM293.9,101.5h17.1l-8.5-16.2-8.5,16.2Z"/>
  <path class="st0" d="M302.4,375.4l-18.5-35.1h37l-18.5,35.1ZM293.9,346.3l8.5,16.2,8.5-16.2h-17.1Z"/>
  <path class="st0" d="M186,242.4l-35.1-18.5,35.1-18.5v37ZM163.8,223.9l16.2,8.5v-17.1l-16.2,8.5Z"/>
  <path class="st0" d="M433,428.8c-35.6,0-69.8-8.9-100.3-26h6.3c28.8,15.2,60.8,23,94,23,48.8,0,95.9-17.6,132.7-49.5,33.3-28.8,56.2-67.6,65.5-110.2h3.1c-9.3,43.5-32.6,83.1-66.6,112.5-37.4,32.4-85.2,50.2-134.7,50.2Z"/>
  <path class="st0" d="M629.6,172.8c-1.7-6.6-3.7-13.1-6-19.4-14.1-38.7-39.4-71.8-73.1-95.8-34.4-24.5-75.1-37.5-117.5-37.5s-66.9,8.3-96.2,24.2h-6.3c31-17.8,65.9-27.2,102.5-27.2s84.3,13.1,119.2,38c34.2,24.3,59.8,57.9,74.2,97.2,2.4,6.7,4.5,13.5,6.3,20.4-3.1,0-1.1,0-3.1,0Z"/>
  <polygon class="st0" points="136.6 192.5 109.2 165.2 40.4 165.2 40.4 162.2 110.4 162.2 138.7 190.4 136.6 192.5"/>
  <polygon class="st0" points="91.8 351.2 89.7 349.1 123 315.8 163 315.8 163 318.8 124.3 318.8 91.8 351.2"/>
  <polygon class="st0" points="164.1 131.8 140.7 131.8 112.7 103.9 93.6 103.9 93.6 100.9 114 100.9 142 128.8 164.1 128.8 164.1 131.8"/>
  <polygon class="st0" points="86.7 285.6 64.4 285.6 64.4 282.6 85.5 282.6 113.5 254.7 136.9 254.7 136.9 257.7 114.7 257.7 86.7 285.6"/>
  <polygon class="st0" points="208.8 86.4 174 51.7 174 28 177 28 177 50.5 210.9 84.3 208.8 86.4"/>
  <rect class="st0" x="150.4" y="49.6" width="25.1" height="3"/>
  <path class="st0" d="M143,60.3h0c-5.2,0-9.4-4.2-9.3-9.2,0-5,4.2-9.1,9.4-9.1h0c5.2,0,9.4,4.2,9.3,9.2h-1.5s1.5,0,1.5,0c0,2.5-1,4.7-2.8,6.5-1.8,1.7-4.1,2.6-6.6,2.6ZM143,45c-3.5,0-6.4,2.7-6.4,6.1,0,3.4,2.8,6.2,6.3,6.2,1.7,0,3.3-.6,4.5-1.8,1.2-1.2,1.9-2.7,1.9-4.3,0-3.4-2.8-6.2-6.3-6.2h0Z"/>
  <path class="st0" d="M336.2,390h-67.5l-7.5-40.9c-6.2-2-12.2-4.5-18-7.5l-34.3,23.6-47.7-47.7,23.6-34.3c-2.9-5.8-5.5-11.9-7.5-18l-40.9-7.5v-67.5l40.9-7.5c2-6.2,4.5-12.2,7.5-18l-23.6-34.3,47.7-47.7,34.3,23.6c5.8-2.9,11.9-5.5,18-7.5l7.5-40.9h67.5l7.5,40.9c6.2,2,12.2,4.5,18,7.5l34.3-23.6,45.9,45.9-4.2,4.2-42.4-42.4-33.1,22.8-1.6-.8c-6.5-3.4-13.4-6.3-20.4-8.5l-1.7-.5-7.3-39.6h-57.5l-7.3,39.6-1.7.5c-7,2.2-13.9,5-20.4,8.5l-1.6.8-33.1-22.8-40.6,40.6,22.8,33.1-.8,1.6c-3.4,6.5-6.3,13.4-8.5,20.4l-.5,1.7-39.6,7.3v57.5l39.6,7.3.5,1.7c2.2,7,5,13.9,8.5,20.4l.8,1.6-22.8,33.1,40.6,40.6,33.1-22.8,1.6.8c6.5,3.4,13.4,6.3,20.4,8.5l1.7.5,7.3,39.6h57.5l7.3-39.6,1.7-.5c7-2.2,13.9-5,20.4-8.5l1.6-.8,33.1,22.8,42.4-42.4,4.2,4.2-45.9,45.9-34.3-23.6c-5.8,2.9-11.9,5.5-18,7.5l-7.5,40.9Z"/>
</svg>