<svg width="333" height="333" viewBox="0 0 333 333" fill="none" xmlns="http://www.w3.org/2000/svg">
<path class="circle" d="M166.3 220.6C136.4 220.6 112 196.2 112 166.3C112 136.4 136.4 112 166.3 112C196.2 112 220.6 136.4 220.6 166.3C220.6 196.2 196.2 220.6 166.3 220.6ZM166.3 118C139.7 118 118 139.7 118 166.3C118 192.9 139.7 214.6 166.3 214.6C192.9 214.6 214.6 192.9 214.6 166.3C214.6 139.7 192.9 118 166.3 118Z" fill="#689367"/>
<path class="arrow" d="M184 50.1106H147L165.5 15L184 50.1106ZM157 44.1088H174.1L165.6 27.9039L157.1 44.1088H157Z" fill="#689367"/>
<path class="arrow" d="M165.5 317.111L147 282H184L165.5 317.111ZM157 288.002L165.5 304.207L174 288.002H156.9H157Z" fill="#689367"/>
<path class="arrow" d="M49.1 184.011L14 165.506L49.1 147V184.011ZM26.9 165.506L43.1 174.008V156.903L26.9 165.406V165.506Z" fill="#689367"/>
<path class="arrow" d="M282 147L317.1 165.506L282 184.011V147ZM304.2 165.506L288 157.003V174.108L304.2 165.606V165.506Z" fill="#689367"/>
<path class="gear-main" d="M199.8 332.2H132.3L124.8 291.288C118.6 289.287 112.6 286.786 106.8 283.785L72.5 307.393L24.8 259.678L48.4 225.368C45.5 219.566 42.9 213.464 40.9 207.362L0 199.86V132.34L40.9 124.838C42.9 118.636 45.4 112.634 48.4 106.832L24.8 72.5218L72.5 24.8075L106.8 48.4146C112.6 45.5137 118.7 42.9129 124.8 40.9123L132.3 0H199.8L207.3 40.9123C213.5 42.9129 219.5 45.4137 225.3 48.4146L259.6 24.8075L305.5 70.7213L301.3 74.9226L258.9 32.5098L225.8 55.3166L224.2 54.5164C217.7 51.1154 210.8 48.2145 203.8 46.0138L202.1 45.5137L194.8 5.90177H137.3L130 45.5137L128.3 46.0138C121.3 48.2145 114.4 51.0154 107.9 54.5164L106.3 55.3166L73.2 32.5098L32.6 73.122L55.4 106.232L54.6 107.832C51.2 114.334 48.3 121.237 46.1 128.239L45.6 129.939L6 137.241V194.759L45.6 202.061L46.1 203.761C48.3 210.763 51.1 217.666 54.6 224.167L55.4 225.768L32.6 258.878L73.2 299.49L106.3 276.683L107.9 277.484C114.4 280.885 121.3 283.785 128.3 285.986L130 286.486L137.3 326.098H194.8L202.1 286.486L203.8 285.986C210.8 283.785 217.7 280.985 224.2 277.484L225.8 276.683L258.9 299.49L301.3 257.077L308 260.578L259.6 307.192L225.3 283.585C219.5 286.486 213.4 289.087 207.3 291.088L199.8 332V332.2Z" fill="#689367"/>
<path class="gear-main" d="M259.7 25.0075L283.55 48.8647L307.4 72.7219L283.8 107.032C286.7 112.834 289.3 118.936 291.3 125.038L332.2 132.54V200.06L291.3 207.562C289.3 213.764 286.8 219.766 283.8 225.568L308.1 260.678L299.6 259.278L276.8 226.168L277.6 224.568C281 218.066 283.9 211.164 286.1 204.161L286.6 202.461L326.2 195.159V137.641L286.6 130.339L286.1 128.639C283.9 121.637 281.1 114.735 277.6 108.233L276.8 106.632L299.6 73.5221L259 32.9099L259.7 25.0075Z" fill="#689367"/>

<style>
    .circle {
        fill: #689367;
        stroke: #689367;
        stroke-width: 1;
    }
    
    .arrow {
        fill: #689367;
    }
    
    .gear-main {
        fill: #689367;
        stroke: #689367;
        stroke-width: 1;
    }

</style>
</svg>