<svg width="333" height="333" viewBox="0 0 333 333" fill="none" xmlns="http://www.w3.org/2000/svg">
<path d="M166 220.3C136.1 220.3 111.7 195.9 111.7 166C111.7 136.1 136.1 111.7 166 111.7C195.9 111.7 220.3 136.1 220.3 166C220.3 195.9 195.9 220.3 166 220.3ZM166 117.7C139.4 117.7 117.7 139.4 117.7 166C117.7 192.6 139.4 214.3 166 214.3C192.6 214.3 214.3 192.6 214.3 166C214.3 139.4 192.6 117.7 166 117.7Z" fill="#689367"/>
<path d="M184 50.1H147L165.5 15L184 50.1ZM157 44.1H174.1L165.6 27.9L157.1 44.1H157Z" fill="#689367"/>
<path d="M166 317.5L147.5 282.4H184.5L166 317.5ZM157.5 288.4L166 304.6L174.5 288.4H157.4H157.5Z" fill="#689367"/>
<path d="M49.6 184.5L14.5 166L49.6 147.5V184.5ZM27.4 166L43.6 174.5V157.4L27.4 165.9V166Z" fill="#689367"/>
<path d="M282 148L317.1 166.5L282 185V148ZM304.2 166.5L288 158V175.1L304.2 166.6V166.5Z" fill="#689367"/>
<path d="M199.8 332.1H132.3L124.8 291.2C118.6 289.2 112.6 286.7 106.8 283.7L72.5 307.3L24.8 259.6L48.4 225.3C45.5 219.5 42.9 213.4 40.9 207.3L0 199.8V132.3L40.9 124.8C42.9 118.6 45.4 112.6 48.4 106.8L24.8 72.5L72.5 24.8L106.8 48.4C112.6 45.5 118.7 42.9 124.8 40.9L132.3 0H199.8L207.3 40.9C213.5 42.9 219.5 45.4 225.3 48.4L259.6 24.8L305.5 70.7L301.3 74.9L258.9 32.5L225.8 55.3L224.2 54.5C217.7 51.1 210.8 48.2 203.8 46L202.1 45.5L194.8 5.9H137.3L130 45.5L128.3 46C121.3 48.2 114.4 51 107.9 54.5L106.3 55.3L73.2 32.5L32.6 73.1L55.4 106.2L54.6 107.8C51.2 114.3 48.3 121.2 46.1 128.2L45.6 129.9L6 137.2V194.7L45.6 202L46.1 203.7C48.3 210.7 51.1 217.6 54.6 224.1L55.4 225.7L32.6 258.8L73.2 299.4L106.3 276.6L107.9 277.4C114.4 280.8 121.3 283.7 128.3 285.9L130 286.4L137.3 326H194.8L202.1 286.4L203.8 285.9C210.8 283.7 217.7 280.9 224.2 277.4L225.8 276.6L258.9 299.4L301.3 257L308 260.5L259.6 307.1L225.3 283.5C219.5 286.4 213.4 289 207.3 291L199.8 331.9V332.1Z" fill="#689367"/>
<path d="M259.7 25L283.55 48.85L307.4 72.7L283.8 107C286.7 112.8 289.3 118.9 291.3 125L332.2 132.5V200L291.3 207.5C289.3 213.7 286.8 219.7 283.8 225.5L308.1 260.6L299.6 259.2L276.8 226.1L277.6 224.5C281 218 283.9 211.1 286.1 204.1L286.6 202.4L326.2 195.1V137.6L286.6 130.3L286.1 128.6C283.9 121.6 281.1 114.7 277.6 108.2L276.8 106.6L299.6 73.5L259 32.9L259.7 25Z" fill="#689367"/>
</svg>
